# Blender v2.76 (sub 0) OBJ File: ''
# www.blender.org
mtllib Ground.mtl
o Circle_Circle.001
v 0.025000 -0.085172 0.014664
v 0.025000 -0.085172 -9.985336
v -3.801835 -0.085172 -9.224132
v -7.046068 -0.085172 -7.056404
v -9.213796 -0.085172 -3.812171
v -9.975000 -0.085172 0.014664
v -9.213796 -0.085172 3.841499
v -7.046068 -0.085172 7.085732
v -3.801835 -0.085172 9.253459
v 0.024998 -0.085172 10.014664
v 3.851832 -0.085172 9.253460
v 7.096066 -0.085172 7.085734
v 9.263795 -0.085172 3.841499
v 10.025000 -0.085172 0.014664
v 9.263794 -0.085172 -3.812172
v 7.096066 -0.085172 -7.056406
v 3.851830 -0.085172 -9.224133
v 0.025000 -0.085172 -11.733549
v -4.470847 -0.085172 -10.839270
v -8.282241 0.153366 -8.292577
v -10.828934 -0.085172 -4.481183
v -11.723213 -0.085172 0.014664
v -10.828934 -0.085172 4.510511
v -8.282241 -0.085172 8.321904
v -4.470847 -0.085172 10.868597
v 0.024998 -0.085172 11.762877
v 4.520844 -0.085172 10.868598
v 8.332238 -0.085172 8.321907
v 10.878933 0.328719 4.510511
v 11.773212 0.506656 0.014664
v 10.878932 0.686722 -4.481184
v 8.332237 0.334199 -8.292580
v 4.520841 0.259462 -10.839272
v 0.025000 -0.346579 -13.471181
v -5.135809 -0.085172 -12.444633
v -9.510932 -0.085172 -9.521268
v -12.434297 -0.085172 -5.146145
v -13.460845 -0.085172 0.014664
v -12.434297 -0.085172 5.175474
v -9.510932 -0.085172 9.550595
v -5.135810 -0.085172 12.473960
v 0.024998 -0.085172 13.500508
v 5.185807 -0.085172 12.473961
v 9.560929 -0.085172 9.550599
v 12.484296 -0.085172 5.175475
v 13.510844 -0.085172 0.014664
v 12.484295 -0.085172 -5.146148
v 9.560928 -0.085172 -9.521272
v 5.185803 -0.085172 -12.444634
vn 0.000000 1.000000 0.000000
vn 0.042200 0.998200 0.042200
vn -0.116000 0.993000 -0.023500
vn -0.176300 0.984300 0.009400
vn -0.201500 0.976700 0.073800
vn -0.094300 0.991600 0.088600
vn -0.054800 0.995100 0.082700
vn 0.041800 0.998800 0.024200
vn 0.004900 1.000000 -0.003400
vn 0.039400 0.998500 -0.036500
vn 0.010300 0.999300 -0.034500
vn -0.012100 0.999800 -0.012100
vn -0.003400 1.000000 0.004900
vn -0.005600 0.999900 0.008600
vn -0.027200 0.998900 -0.038300
vn -0.008400 0.997500 -0.069900
vn 0.008700 0.998300 0.057600
vn 0.000000 0.988900 -0.148700
vn 0.002500 0.999800 -0.018200
vn 0.040800 0.981900 -0.185100
vn -0.073000 0.994600 -0.073000
vn 0.177700 0.978500 0.104500
vn 0.311300 0.950200 0.011800
vn 0.342100 0.927000 -0.153800
vn 0.158800 0.973200 -0.166000
usemtl Ground
s 1
f 1//1 2//1 3//1
f 1//1 3//1 4//2
f 1//1 4//2 5//1
f 1//1 5//1 6//1
f 1//1 6//1 7//1
f 1//1 7//1 8//1
f 1//1 8//1 9//1
f 1//1 9//1 10//1
f 1//1 10//1 11//1
f 1//1 11//1 12//1
f 1//1 12//1 13//3
f 1//1 13//3 14//4
f 1//1 14//4 15//5
f 1//1 15//5 16//6
f 1//1 16//6 17//7
f 1//1 17//7 2//1
f 15//5 14//4 30//8
f 4//2 3//1 19//9
f 7//1 23//1 24//1
f 12//1 11//1 27//1
f 15//5 31//10 32//11
f 4//2 20//12 21//13
f 8//1 24//1 25//1
f 13//3 12//1 28//14
f 16//6 32//11 33//15
f 5//1 21//13 22//1
f 2//1 18//16 19//9
f 9//1 25//1 26//1
f 14//4 13//3 29//17
f 17//7 33//15 18//16
f 6//1 22//1 23//1
f 10//1 26//1 27//1
f 18//16 34//18 35//19
f 18//16 33//15 49//20
f 27//1 26//1 42//1
f 19//9 35//19 36//21
f 28//14 27//1 43//1
f 21//13 20//12 36//21
f 28//14 44//1 45//22
f 21//13 37//1 38//1
f 29//17 45//22 46//23
f 23//1 22//1 38//1
f 30//8 46//23 47//24
f 23//1 39//1 40//1
f 32//11 31//10 47//24
f 24//1 40//1 41//1
f 33//15 32//11 48//25
f 25//1 41//1 42//1
f 31//10 15//5 30//8
f 20//12 4//2 19//9
f 8//1 7//1 24//1
f 28//14 12//1 27//1
f 16//6 15//5 32//11
f 5//1 4//2 21//13
f 9//1 8//1 25//1
f 29//17 13//3 28//14
f 17//7 16//6 33//15
f 6//1 5//1 22//1
f 3//1 2//1 19//9
f 10//1 9//1 26//1
f 30//8 14//4 29//17
f 2//1 17//7 18//16
f 7//1 6//1 23//1
f 11//1 10//1 27//1
f 19//9 18//16 35//19
f 34//18 18//16 49//20
f 43//1 27//1 42//1
f 20//12 19//9 36//21
f 44//1 28//14 43//1
f 37//1 21//13 36//21
f 29//17 28//14 45//22
f 22//1 21//13 38//1
f 30//8 29//17 46//23
f 39//1 23//1 38//1
f 31//10 30//8 47//24
f 24//1 23//1 40//1
f 48//25 32//11 47//24
f 25//1 24//1 41//1
f 49//20 33//15 48//25
f 26//1 25//1 42//1
o Icosphere
v 0.000000 24.418793 0.000000
v 13.024799 14.468662 9.462959
v -4.974930 14.468662 15.311520
v -16.099648 14.468662 0.000000
v -4.974930 14.468662 -15.311520
v 13.024799 14.468662 -9.462959
v 4.974930 -1.631076 15.311520
v -13.024799 -1.631076 9.462959
v -13.024799 -1.631076 -9.462959
v 4.974930 -1.631076 -15.311520
v 16.099648 -1.631076 0.000000
v -10.537289 14.468662 -7.655760
vt 0.399745 0.993248
vt 0.299858 0.499787
vt 0.499633 0.499785
vt 0.500110 0.499894
vt 0.699997 0.499890
vt 0.600055 0.999788
vt 0.199905 0.999676
vt 0.099959 0.499774
vt 0.000045 0.999979
vt 0.000045 0.499849
vt 0.800026 1.000210
vt 0.700040 0.500106
vt 0.900012 0.500106
vt 0.600051 -0.000002
vt 0.300434 0.499792
vt 0.400362 -0.000016
vt 0.500332 0.499873
vt 0.199903 -0.000133
vt 0.299848 0.499772
vt -0.000002 -0.000063
vt 0.099947 0.499852
vt -0.000002 0.499854
vt 0.800027 -0.000005
vt 0.500208 0.499375
vt 0.600044 0.000017
vt 0.300379 0.499926
vt 0.200433 0.000025
vt 0.400322 0.000024
vt 0.899993 0.499997
vt 0.999955 -0.000000
vt 0.999958 0.499471
vt 0.900100 0.499916
vt 0.900157 0.499472
vt 0.999958 0.998643
vn 0.000000 1.000000 0.000000
vn -0.276400 0.447200 0.850600
vn 0.723600 0.447200 0.525700
vn 0.723600 0.447200 -0.525700
vn -0.894400 0.447200 0.000000
vn -0.688200 0.525700 -0.500000
vn -0.276400 0.447200 -0.850600
vn 0.997300 -0.072700 0.000000
vn 0.308200 -0.072700 0.948500
vn -0.806800 -0.072800 0.586200
vn -0.806800 -0.072800 -0.586200
vn 0.308200 -0.072700 -0.948500
usemtl Material.001
s 1
f 50/1/26 52/2/27 51/3/28
f 51/4/28 55/5/29 50/6/26
f 50/7/26 53/8/30 52/2/27
f 50/9/26 61/10/31 53/8/30
f 50/11/26 55/12/29 54/13/32
f 51/4/28 60/14/33 55/5/29
f 52/15/27 56/16/34 51/17/28
f 53/8/30 57/18/35 52/19/27
f 58/20/36 53/21/30 61/22/31
f 55/12/29 59/23/37 54/13/32
f 51/24/28 56/16/34 60/25/33
f 52/26/27 57/27/35 56/28/34
f 53/8/30 58/20/36 57/18/35
f 54/29/32 59/23/37 58/30/36
f 55/12/29 60/14/33 59/23/37
f 61/31/31 54/32/32 58/30/36
f 54/33/32 61/31/31 50/34/26
