# Blender v2.76 (sub 0) OBJ File: 'windmill.blend'
# www.blender.org
mtllib Windmill.mtl
o Circle.001
v 0.000000 0.000000 -3.000000
v -1.763356 0.000000 -2.427051
v -2.853170 0.000000 -0.927051
v -2.853169 0.000000 0.927051
v -1.763355 0.000000 2.427051
v 0.000000 0.000000 3.000000
v 1.763356 0.000000 2.427051
v 2.853169 0.000000 0.927051
v 2.853169 0.000000 -0.927051
v 1.763355 0.000000 -2.427052
v -0.000000 6.190279 -2.700000
v -1.587020 6.190279 -2.184346
v -2.567853 6.190279 -0.834346
v -2.567852 6.190279 0.834346
v -1.587020 6.190279 2.184346
v 0.000000 6.190279 2.700000
v 1.587020 6.190279 2.184346
v 2.567852 6.190279 0.834346
v 2.567852 6.190279 -0.834346
v 1.587019 6.190279 -2.184346
v 0.000000 6.190279 -2.970000
v -1.745722 6.190279 -2.402781
v -2.824638 6.190279 -0.917780
v -2.824638 6.190279 0.917781
v -1.745722 6.190279 2.402781
v 0.000000 6.190279 2.970000
v 1.745723 6.190279 2.402780
v 2.824638 6.190279 0.917781
v 2.824638 6.190279 -0.917781
v 1.745721 6.190279 -2.402781
v 0.000000 6.440279 -2.970000
v -1.745722 6.440279 -2.402781
v -2.824638 6.440279 -0.917780
v -2.824638 6.440279 0.917781
v -1.745722 6.440279 2.402781
v 0.000000 6.440279 2.970000
v 1.745723 6.440279 2.402780
v 2.824638 6.440279 0.917781
v 2.824638 6.440279 -0.917781
v 1.745721 6.440279 -2.402781
v 0.000000 6.440279 -2.673000
v -1.571150 6.440279 -2.162503
v -2.542174 6.440279 -0.826002
v -2.542174 6.440279 0.826002
v -1.571150 6.440279 2.162503
v 0.000000 6.440279 2.673000
v 1.571150 6.440279 2.162502
v 2.542174 6.440279 0.826003
v 2.542174 6.440279 -0.826003
v 1.571149 6.440279 -2.162503
v -0.000000 7.440279 -2.004750
v -1.178362 7.440279 -1.621877
v -1.906631 7.440279 -0.619502
v -1.906631 7.440279 0.619502
v -1.178362 7.440279 1.621877
v 0.000000 7.440279 2.004750
v 1.178362 7.440279 1.621876
v 1.906630 7.440279 0.619502
v 1.906630 7.440279 -0.619502
v 1.178362 7.440279 -1.621877
v -0.000000 7.940278 -1.002375
v -0.589181 7.940278 -0.810939
v -0.953315 7.940278 -0.309751
v -0.953315 7.940278 0.309751
v -0.589181 7.940278 0.810938
v 0.000000 7.940278 1.002375
v 0.589181 7.940278 0.810938
v 0.953315 7.940278 0.309751
v 0.953315 7.940278 -0.309751
v 0.589181 7.940278 -0.810939
v -0.000000 8.190278 -0.000000
v 0.953315 8.190278 0.309751
v 0.953315 8.190278 -0.309751
v 2.824638 8.190279 -0.917781
v 1.906630 8.190279 -0.619502
v 1.906630 8.190279 0.619502
v 2.824638 8.190279 0.917781
v 2.824638 7.680785 -0.175008
v 2.824638 7.503541 0.002235
v 2.824638 7.848974 -0.006819
v 2.824638 7.671731 0.170424
v 3.150935 7.680785 -0.175008
v 3.150935 7.503541 0.002235
v 3.150935 7.848974 -0.006819
v 3.150935 7.671731 0.170424
v 3.400935 7.680785 -0.175008
v 3.400935 7.503541 0.002235
v 3.400935 7.848974 -0.006819
v 3.400935 7.671731 0.170424
v 3.150935 7.680785 -0.175008
v 3.150935 7.848974 -0.006819
v 3.400935 7.680785 -0.175008
v 3.400935 7.848974 -0.006819
v 3.150935 8.387892 -0.882115
v 3.150935 8.556081 -0.713926
v 3.400935 8.387892 -0.882115
v 3.400935 8.556081 -0.713926
v 3.150935 8.556081 0.700288
v 3.150935 8.378838 0.877531
v 3.400935 8.556081 0.700288
v 3.400935 8.378838 0.877531
v 3.150935 6.796434 0.709342
v 3.150935 6.964624 0.877531
v 3.400935 6.796434 0.709342
v 3.400935 6.964624 0.877531
v 3.150935 6.973678 -0.882115
v 3.150935 6.796435 -0.704872
v 3.400935 6.973678 -0.882115
v 3.400935 6.796435 -0.704872
v 3.150935 11.923426 -4.417649
v 3.150935 12.091615 -4.249459
v 3.400935 11.923426 -4.417649
v 3.400935 12.091615 -4.249459
v 3.150935 12.091614 4.235822
v 3.150935 11.914371 4.413066
v 3.400935 12.091614 4.235822
v 3.400935 11.914371 4.413066
v 3.150935 3.260900 4.244875
v 3.150935 3.429090 4.413064
v 3.400935 3.260900 4.244875
v 3.400935 3.429090 4.413064
v 3.150935 3.438144 -4.417649
v 3.150935 3.260901 -4.240406
v 3.400935 3.438144 -4.417649
v 3.400935 3.260901 -4.240406
v 3.231149 6.973678 -2.296329
v 2.981149 6.973678 -2.296329
v 3.231149 10.509212 -5.831862
v 2.981149 10.509212 -5.831862
v 2.981149 5.382221 0.709341
v 3.231149 5.382221 0.709341
v 2.981149 1.846687 -2.826193
v 3.231149 1.846687 -2.826193
v 2.981149 8.378838 2.291744
v 3.231149 8.378838 2.291744
v 2.981149 4.843303 5.827278
v 3.231149 4.843303 5.827278
v 2.981149 9.970294 -0.713926
v 3.231149 9.970294 -0.713926
v 2.981149 13.505827 2.821609
v 3.231149 13.505827 2.821609
vt 0.839801 0.585161
vt 0.775710 0.575764
vt 0.780111 0.283548
vt 0.777397 0.883205
vt 0.700346 0.880137
vt 0.702154 0.585161
vt 0.428341 0.570146
vt 0.507561 0.570146
vt 0.511963 0.865898
vt 0.696490 0.575764
vt 0.632399 0.585161
vt 0.620877 0.293989
vt 0.352728 0.862479
vt 0.364250 0.567069
vt 0.150320 0.888463
vt 0.072018 0.884220
vt 0.078102 0.590680
vt 0.692089 0.283548
vt 0.627197 0.883205
vt 0.620877 0.588570
vt 0.571652 0.567069
vt 0.583174 0.862479
vt 0.486827 0.012889
vt 0.486827 0.000000
vt 0.569704 0.027076
vt 0.620925 0.185585
vt 0.569704 0.256472
vt 0.562169 0.246045
vt 0.411483 0.246045
vt 0.403949 0.256472
vt 0.352728 0.185585
vt 0.403949 0.027076
vt 0.620925 0.097964
vt 0.608734 0.181602
vt 0.486826 0.283548
vt 0.001726 0.888463
vt 0.608734 0.101946
vt 0.486826 0.270660
vt 0.352728 0.097963
vt 0.364919 0.101946
vt 0.334119 0.867415
vt 0.337476 0.948321
vt 0.325700 0.948202
vt 0.985729 0.916089
vt 0.989096 0.986976
vt 0.977253 0.986976
vt 0.947339 0.512943
vt 0.957619 0.442056
vt 0.969246 0.442056
vt 0.337476 0.782194
vt 0.322343 0.867296
vt 0.985729 0.828468
vt 0.973886 0.916089
vt 0.957619 0.354435
vt 0.947339 0.283548
vt 0.958966 0.283548
vt 0.989096 0.757581
vt 0.973886 0.828468
vt 0.962737 0.756535
vt 0.972533 0.670366
vt 0.984182 0.671411
vt 0.969246 0.354435
vt 0.366136 0.385915
vt 0.366136 0.464766
vt 0.352728 0.469150
vt 0.486802 0.552893
vt 0.561379 0.528507
vt 0.569665 0.539974
vt 0.607469 0.385851
vt 0.561379 0.322071
vt 0.569665 0.310600
vt 0.412226 0.528546
vt 0.486802 0.567069
vt 0.620877 0.469080
vt 0.607469 0.464703
vt 0.486802 0.297724
vt 0.412226 0.322110
vt 0.403940 0.540017
vt 0.987792 0.017111
vt 0.985527 0.074635
vt 0.934468 0.076699
vt 0.272988 0.914874
vt 0.272988 0.855730
vt 0.322343 0.845873
vt 0.218152 0.855730
vt 0.211213 0.807881
vt 0.261464 0.782075
vt 0.270716 0.962723
vt 0.322343 0.924732
vt 0.352728 0.865898
vt 0.404679 0.878740
vt 0.404679 0.937283
vt 0.218152 0.914874
vt 0.270716 0.845873
vt 0.987792 0.129247
vt 0.937489 0.149514
vt 0.270716 0.807881
vt 0.211213 0.962723
vt 0.270716 0.924732
vt 0.283003 0.647667
vt 0.255040 0.638528
vt 0.255595 0.590680
vt 0.255040 0.734226
vt 0.283003 0.725088
vt 0.311522 0.763798
vt 0.300286 0.671591
vt 0.311522 0.608956
vt 0.199669 0.608956
vt 0.227076 0.647667
vt 0.209794 0.671591
vt 0.227076 0.725088
vt 0.255595 0.782075
vt 0.300286 0.701163
vt 0.346087 0.656805
vt 0.209794 0.701163
vt 0.199669 0.763798
vt 0.254762 0.686377
vt 0.962043 0.805430
vt 0.973886 0.757581
vt 0.973886 0.805430
vt 0.972533 0.592480
vt 0.984182 0.593525
vt 0.170718 0.924013
vt 0.182345 0.924013
vt 0.831336 0.862946
vt 0.846042 0.908441
vt 0.816631 0.908441
vt 0.165104 0.885302
vt 0.860747 0.953935
vt 0.938358 0.853278
vt 0.829177 0.266221
vt 0.844668 0.266221
vt 0.844668 0.274250
vt 0.787765 0.997745
vt 0.801926 0.953935
vt 0.890986 0.885177
vt 0.973886 0.853278
vt 0.973886 0.899355
vt 0.874907 0.997745
vt 0.176331 0.962723
vt 0.000000 0.000000
vt 0.829177 0.257760
vt 0.844668 0.257760
vt 0.851323 0.583032
vt 0.851323 0.568215
vt 0.859840 0.565917
vt 0.844668 0.274570
vt 0.844668 0.259725
vt 0.854666 0.257760
vt 0.253850 0.290700
vt 0.264455 0.291806
vt 0.264455 0.302922
vt 0.349345 0.782075
vt 0.349345 0.815829
vt 0.337476 0.815829
vt 0.427033 0.906762
vt 0.427033 0.865898
vt 0.438134 0.868079
vt 0.253850 0.243966
vt 0.264455 0.245072
vt 0.261464 0.988530
vt 0.263127 1.000000
vt 0.181737 1.000000
vt 0.890986 0.899355
vt 0.986862 0.528730
vt 0.986862 0.487867
vt 0.997964 0.490048
vt 0.986862 0.283548
vt 0.997964 0.285730
vt 0.818660 0.000000
vt 0.829177 0.000753
vt 0.829177 0.047689
vt 0.605956 0.837221
vt 0.607106 0.803486
vt 0.618968 0.803895
vt 0.840173 0.000000
vt 0.840173 0.042769
vt 0.829177 0.043916
vt 0.349345 0.984599
vt 0.337476 0.984599
vt 0.632596 0.271258
vt 0.620925 0.272094
vt 0.620925 0.227522
vt 0.449039 0.868841
vt 0.449039 0.906121
vt 0.438134 0.903178
vt 0.264455 0.349656
vt 0.253850 0.348551
vt 0.211542 0.297404
vt 0.215198 0.389401
vt 0.003657 0.367341
vt 0.253850 0.301816
vt 0.211541 0.286288
vt 0.588615 0.845557
vt 0.587743 0.811814
vt 0.599608 0.811504
vt 0.936822 0.283548
vt 0.947339 0.284302
vt 0.947339 0.331237
vt 0.890986 0.629733
vt 0.890986 0.852594
vt 0.879315 0.853430
vt 0.600480 0.845247
vt 0.601352 0.878989
vt 0.589488 0.879299
vt 0.995087 0.533902
vt 0.995087 0.571182
vt 0.984182 0.568239
vt 0.890986 0.585161
vt 0.879315 0.630569
vt 0.886836 0.946646
vt 0.875711 0.944714
vt 0.874908 0.935884
vt 0.818660 0.046936
vt 0.829177 0.282369
vt 0.886033 0.937816
vt 0.875711 0.862946
vt 0.840173 0.256614
vt 0.613447 0.929677
vt 0.602203 0.928436
vt 0.601352 0.918228
vt 0.264455 0.583327
vt 0.352728 0.357009
vt 0.352728 0.590680
vt 0.620925 0.004661
vt 0.632596 0.003825
vt 0.595246 0.642791
vt 0.583382 0.643101
vt 0.583174 0.635075
vt 0.936822 0.330484
vt 0.947339 0.565917
vt 0.000000 0.275344
vt 0.974712 0.283957
vt 0.986573 0.283548
vt 0.986862 0.292004
vt 0.253850 0.010296
vt 0.172890 0.233671
vt 0.264455 0.011402
vt 0.995087 0.757581
vt 0.984182 0.754638
vt 0.601352 0.735740
vt 0.607106 0.567069
vt 0.618968 0.567478
vt 0.818660 0.281615
vt 0.727292 0.276656
vt 0.727292 0.041977
vt 0.613214 0.736149
vt 0.934468 0.036632
vt 0.934468 0.250477
vt 0.975000 0.528830
vt 0.969246 0.360159
vt 0.981108 0.359750
vt 0.934468 0.233068
vt 0.934468 0.149514
vt 0.945327 0.152700
vt 0.787765 0.862946
vt 0.787765 0.640086
vt 0.975000 0.292413
vt 0.998894 0.002181
vt 0.998894 0.206500
vt 0.987792 0.204319
vt 0.415249 0.869888
vt 0.415249 0.946808
vt 0.404679 0.942817
vt 0.936822 0.565163
vt 0.851323 0.557453
vt 0.851323 0.322773
vt 0.595039 0.634765
vt 0.589488 0.567379
vt 0.989096 0.943980
vt 1.000000 0.760524
vt 0.612596 0.919470
vt 0.602203 0.837630
vt 0.727292 0.000000
vt 0.727292 0.222861
vt 0.415249 0.933891
vt 0.415249 0.865898
vt 0.427033 0.867321
vt 0.890986 0.663047
vt 0.411483 0.037503
vt 0.851323 0.293989
vt 0.787765 0.588570
vt 0.423940 0.865898
vt 0.165104 0.595394
vt 0.562170 0.037504
vt 0.364919 0.181602
vt 0.000000 0.595394
vt 0.958966 0.512943
vt 0.325700 0.782075
vt 0.977253 0.757581
vt 0.974387 0.757581
vt 0.352728 0.381537
vt 0.620877 0.381467
vt 0.403940 0.310644
vt 0.937489 0.000000
vt 0.319314 0.988530
vt 0.352728 0.943956
vt 0.319314 0.782075
vt 0.165104 0.656805
vt 0.346087 0.715949
vt 0.165104 0.715949
vt 0.829177 0.274250
vt 0.859840 0.580734
vt 0.854666 0.272605
vt 0.337476 0.782075
vt 0.438134 0.908943
vt 0.997964 0.530912
vt 0.617817 0.837630
vt 0.829177 0.001147
vt 0.632596 0.226686
vt 0.438134 0.865898
vt 0.984182 0.530959
vt 0.879314 0.585997
vt 0.886836 0.864878
vt 0.253850 0.582221
vt 0.000000 0.264228
vt 0.172890 0.000000
vt 0.986862 0.528421
vt 0.945327 0.236253
vt 0.987792 0.000000
vt 0.404679 0.865898
vt 0.601352 0.567069
vt 1.000000 0.946922
vt 0.613447 0.838872
vt 0.427033 0.935313
vn 0.808200 0.046000 0.587200
vn -0.808200 0.046000 0.587200
vn -0.308700 0.046000 -0.950000
vn -0.308700 0.046000 0.950000
vn -0.808200 0.046000 -0.587200
vn 0.808200 0.046000 -0.587200
vn 0.308700 0.046000 0.950000
vn -0.998900 0.046000 0.000000
vn 0.308700 0.046000 -0.950000
vn 0.000000 -1.000000 0.000000
vn 0.998900 0.046000 0.000000
vn -1.000000 0.000000 0.000000
vn 0.309000 0.000000 -0.951100
vn 0.809000 0.000000 0.587800
vn -0.809000 0.000000 0.587800
vn -0.309000 0.000000 -0.951100
vn -0.309000 0.000000 0.951100
vn -0.809000 0.000000 -0.587800
vn 0.809000 0.000000 -0.587800
vn 0.309000 0.000000 0.951100
vn 0.000000 1.000000 0.000000
vn -0.682800 0.536400 0.496100
vn -0.260800 0.536400 -0.802700
vn -0.260800 0.536400 0.802700
vn -0.682800 0.536400 -0.496100
vn 0.682800 0.536400 -0.496100
vn 0.260800 0.536400 0.802700
vn -0.844000 0.536400 0.000000
vn 0.260800 0.536400 -0.802700
vn 0.682800 0.536400 0.496100
vn -0.143500 0.885600 -0.441700
vn -0.143500 0.885600 0.441700
vn -0.375800 0.885600 -0.273000
vn 0.375800 0.885600 -0.273000
vn 0.143500 0.885600 0.441700
vn -0.464500 0.885600 0.000000
vn 0.143500 0.885600 -0.441700
vn 0.375800 0.885600 0.273000
vn -0.375800 0.885600 0.273000
vn -0.078400 0.967300 0.241300
vn -0.205200 0.967300 -0.149100
vn 0.205200 0.967300 -0.149100
vn 0.078400 0.967300 0.241300
vn -0.253700 0.967300 0.000000
vn 0.078400 0.967300 -0.241300
vn 0.205200 0.967300 0.149100
vn -0.205200 0.967300 0.149100
vn -0.078400 0.967300 -0.241300
vn 1.000000 0.000000 0.000000
vn 0.000000 -0.707100 0.707100
vn 0.000000 0.000000 1.000000
vn 0.000000 -0.707100 -0.707100
vn 0.000000 0.707100 -0.707100
vn 0.000000 0.707100 0.707100
vn 0.996400 0.059800 0.059800
vn 0.996400 0.059800 -0.059800
vn 0.996400 -0.059800 0.059800
vn -0.996400 0.059800 0.059800
vn 0.996400 -0.059800 -0.059800
vn -0.996400 0.059800 -0.059800
vn -0.996400 -0.059800 -0.059800
vn -0.996400 -0.059800 0.059800
g (null)
usemtl Material.001
s off
f 18/1/1 17/2/1 7/3/1
f 15/4/2 14/5/2 4/6/2
f 12/7/3 11/8/3 1/9/3
f 16/10/4 15/11/4 5/12/4
f 3/13/5 13/14/5 12/7/5
f 20/15/6 19/16/6 9/17/6
f 17/2/7 16/10/7 6/18/7
f 14/5/8 13/19/8 3/20/8
f 11/8/9 20/21/9 10/22/9
f 17/23/10 27/24/10 26/25/10
f 24/26/10 23/27/10 13/28/10
f 11/29/10 21/30/10 30/31/10
f 28/32/10 27/24/10 17/23/10
f 25/33/10 24/26/10 14/34/10
f 22/35/10 21/30/10 11/29/10
f 9/17/11 19/16/11 18/36/11
f 26/25/10 25/33/10 15/37/10
f 23/27/10 22/35/10 12/38/10
f 30/31/10 29/39/10 19/40/10
f 34/41/12 33/42/12 23/43/12
f 31/44/13 40/45/13 30/46/13
f 38/47/14 37/48/14 27/49/14
f 35/50/15 34/41/15 24/51/15
f 32/52/16 31/44/16 21/53/16
f 36/54/17 35/55/17 25/56/17
f 33/57/18 32/52/18 22/58/18
f 40/59/19 39/60/19 29/61/19
f 37/48/20 36/54/20 26/62/20
f 48/63/21 47/64/21 37/65/21
f 45/66/21 44/67/21 34/68/21
f 42/69/21 41/70/21 31/71/21
f 46/72/21 45/66/21 35/73/21
f 33/74/21 43/75/21 42/69/21
f 40/35/21 50/76/21 49/77/21
f 47/64/21 46/72/21 36/78/21
f 44/67/21 43/75/21 33/74/21
f 41/70/21 50/76/21 40/35/21
f 55/79/22 54/80/22 44/81/22
f 52/82/23 51/83/23 41/84/23
f 56/85/24 55/86/24 45/87/24
f 53/88/25 52/82/25 42/89/25
f 50/90/26 60/91/26 59/92/26
f 57/93/27 56/85/27 46/94/27
f 54/80/28 53/95/28 43/96/28
f 41/84/29 51/83/29 60/97/29
f 58/98/30 57/93/30 47/99/30
f 62/100/31 61/101/31 51/102/31
f 66/103/32 65/104/32 55/105/32
f 63/106/33 62/100/33 52/107/33
f 60/108/34 70/109/34 69/110/34
f 67/111/35 66/103/35 56/112/35
f 64/113/36 63/106/36 53/114/36
f 61/101/37 70/109/37 60/108/37
f 68/115/38 67/111/38 57/116/38
f 55/105/39 65/104/39 64/113/39
f 66/103/40 71/117/40 65/104/40
f 63/106/41 71/117/41 62/100/41
f 70/109/42 71/117/42 69/110/42
f 67/111/43 71/117/43 66/103/43
f 64/113/44 71/117/44 63/106/44
f 61/101/45 71/117/45 70/109/45
f 68/115/46 71/117/46 67/111/46
f 65/104/47 71/117/47 64/113/47
f 62/100/48 71/117/48 61/101/48
f 69/118/16 71/119/16 73/120/16
f 38/121/49 28/122/49 39/60/49
f 58/98/17 72/123/17 68/124/17
f 71/125/21 72/126/21 73/127/21
f 68/124/17 72/123/17 71/128/17
f 72/126/21 76/129/21 73/127/21
f 59/130/16 69/118/16 73/120/16
g Blade
f 79/131/50 83/132/50 85/133/50
g (null)
f 76/129/21 74/134/21 75/135/21
f 75/135/21 73/127/21 76/129/21
f 29/61/49 39/60/49 28/122/49
f 49/136/16 75/137/16 74/138/16
f 74/134/21 76/129/21 77/139/21
f 76/140/17 72/123/17 58/98/17
g Blade
f 82/141/51 84/141/51 91/141/51
f 78/142/52 82/143/52 83/132/52
f 80/144/53 84/145/53 82/146/53
f 81/147/54 85/148/54 84/149/54
f 87/150/49 86/151/49 88/152/49
f 89/153/50 101/154/50 99/155/50
f 85/156/54 103/157/54 105/158/54
f 87/150/49 109/159/49 108/160/49
g (null)
f 48/161/17 38/162/17 77/163/17
f 77/163/17 76/140/17 48/161/17
f 49/136/16 74/138/16 39/164/16
f 58/98/17 48/161/17 76/140/17
g Blade
f 93/165/54 97/166/54 95/167/54
f 84/141/51 88/141/51 93/141/51
f 86/141/51 82/141/51 90/141/51
f 88/141/51 86/141/51 92/141/51
f 97/166/54 113/168/54 111/169/54
f 90/170/12 91/171/12 95/172/12
f 90/173/52 94/174/52 96/175/52
f 92/176/49 96/177/49 97/178/49
f 101/154/50 117/179/50 115/180/50
f 84/181/12 85/182/12 99/183/12
f 84/184/53 98/185/53 100/186/53
f 88/152/49 100/187/49 101/188/49
f 105/189/55 135/190/55 137/191/55
f 89/192/49 105/189/49 104/193/49
f 87/194/52 104/195/52 102/196/52
f 85/197/12 83/198/12 102/199/12
f 106/200/12 122/201/12 123/202/12
f 83/203/50 107/204/50 109/205/50
f 86/206/53 108/207/53 106/208/53
f 82/209/12 106/200/12 107/210/12
f 111/211/53 113/212/53 112/213/53
f 94/214/12 95/172/12 111/215/12
f 110/216/53 112/213/53 128/217/53
f 97/178/49 96/177/49 112/218/49
f 115/219/54 117/220/54 116/221/54
f 101/188/49 100/187/49 116/222/49
f 100/187/56 139/223/56 141/224/56
f 99/183/12 115/225/12 114/226/12
f 118/227/50 120/228/50 121/229/50
f 103/230/12 102/199/12 118/231/12
f 104/195/52 120/228/52 118/227/52
f 104/193/49 105/189/49 121/232/49
f 122/233/52 124/234/52 125/235/52
f 125/236/57 109/159/57 131/237/57
f 109/159/49 125/236/49 124/238/49
f 108/207/53 124/239/53 122/240/53
f 127/241/52 129/242/52 128/243/52
f 110/244/58 129/245/58 127/246/58
f 94/174/50 127/241/50 126/247/50
f 96/177/59 126/248/59 128/249/59
f 130/250/50 132/251/50 133/252/50
f 107/253/54 130/254/54 131/255/54
f 123/202/60 132/256/60 130/257/60
f 123/258/52 125/235/52 133/252/52
f 134/259/54 136/260/54 137/261/54
f 103/262/53 134/263/53 135/264/53
f 119/265/61 136/266/61 134/267/61
f 119/268/50 121/229/50 137/269/50
f 138/270/53 140/57/53 141/271/53
f 114/272/54 116/221/54 141/273/54
f 114/226/62 140/274/62 138/275/62
f 98/276/52 138/277/52 139/278/52
g (null)
f 73/120/16 75/137/16 59/130/16
f 59/130/16 75/137/16 49/136/16
f 39/60/49 77/209/49 38/121/49
f 74/279/49 77/209/49 39/60/49
f 18/280/10 19/40/10 29/39/10
f 8/281/1 18/1/1 7/3/1
f 5/282/2 15/4/2 4/6/2
f 2/283/3 12/7/3 1/9/3
f 6/18/4 16/10/4 5/12/4
f 2/283/5 3/13/5 12/7/5
f 10/284/6 20/15/6 9/17/6
f 7/3/7 17/2/7 6/18/7
f 4/6/8 14/5/8 3/20/8
f 1/9/9 11/8/9 10/22/9
f 16/285/10 17/23/10 26/25/10
f 14/34/10 24/26/10 13/28/10
f 20/286/10 11/29/10 30/31/10
f 18/280/10 28/32/10 17/23/10
f 15/37/10 25/33/10 14/34/10
f 12/38/10 22/35/10 11/29/10
f 8/287/11 9/17/11 18/36/11
f 16/285/10 26/25/10 15/37/10
f 13/28/10 23/27/10 12/38/10
f 20/286/10 30/31/10 19/40/10
f 24/51/12 34/41/12 23/43/12
f 21/53/13 31/44/13 30/46/13
f 28/288/14 38/47/14 27/49/14
f 25/289/15 35/50/15 24/51/15
f 22/58/16 32/52/16 21/53/16
f 26/62/17 36/54/17 25/56/17
f 23/290/18 33/57/18 22/58/18
f 30/291/19 40/59/19 29/61/19
f 27/49/20 37/48/20 26/62/20
f 38/292/21 48/63/21 37/65/21
f 35/73/21 45/66/21 34/68/21
f 32/293/21 42/69/21 31/71/21
f 36/78/21 46/72/21 35/73/21
f 32/293/21 33/74/21 42/69/21
f 39/294/21 40/35/21 49/77/21
f 37/65/21 47/64/21 36/78/21
f 34/68/21 44/67/21 33/74/21
f 31/71/21 41/70/21 40/35/21
f 45/295/22 55/79/22 44/81/22
f 42/89/23 52/82/23 41/84/23
f 46/94/24 56/85/24 45/87/24
f 43/296/25 53/88/25 42/89/25
f 49/297/26 50/90/26 59/92/26
f 47/99/27 57/93/27 46/94/27
f 44/81/28 54/80/28 43/96/28
f 50/298/29 41/84/29 60/97/29
f 48/161/30 58/98/30 47/99/30
f 52/107/31 62/100/31 51/102/31
f 56/112/32 66/103/32 55/105/32
f 53/114/33 63/106/33 52/107/33
f 59/299/34 60/108/34 69/110/34
f 57/116/35 67/111/35 56/112/35
f 54/300/36 64/113/36 53/114/36
f 51/102/37 61/101/37 60/108/37
f 58/301/38 68/115/38 57/116/38
f 54/300/39 55/105/39 64/113/39
g Blade
f 81/302/50 79/131/50 85/133/50
f 90/141/51 82/141/51 91/141/51
f 79/131/52 78/142/52 83/132/52
f 78/303/53 80/144/53 82/146/53
f 80/304/54 81/147/54 84/149/54
f 89/192/49 87/150/49 88/152/49
f 85/305/50 89/153/50 99/155/50
f 89/306/54 85/156/54 105/158/54
f 86/151/49 87/150/49 108/160/49
f 91/307/54 93/165/54 95/167/54
f 91/141/51 84/141/51 93/141/51
f 92/141/51 86/141/51 90/141/51
f 93/141/51 88/141/51 92/141/51
f 95/167/54 97/166/54 111/169/54
f 94/214/12 90/170/12 95/172/12
f 92/308/52 90/173/52 96/175/52
f 93/309/49 92/176/49 97/178/49
f 99/155/50 101/154/50 115/180/50
f 98/310/12 84/181/12 99/183/12
f 88/311/53 84/184/53 100/186/53
f 89/192/49 88/152/49 101/188/49
f 121/232/55 105/189/55 137/191/55
f 87/150/49 89/192/49 104/193/49
f 83/203/52 87/194/52 102/196/52
f 103/230/12 85/197/12 102/199/12
f 107/210/12 106/200/12 123/202/12
f 87/194/50 83/203/50 109/205/50
f 82/312/53 86/206/53 106/208/53
f 83/313/12 82/209/12 107/210/12
f 110/216/53 111/211/53 112/213/53
f 110/244/12 94/214/12 111/215/12
f 129/314/53 110/216/53 128/217/53
f 113/142/49 97/178/49 112/218/49
f 114/272/54 115/219/54 116/221/54
f 117/315/49 101/188/49 116/222/49
f 116/222/56 100/187/56 141/224/56
f 98/310/12 99/183/12 114/226/12
f 119/268/50 118/227/50 121/229/50
f 119/265/12 103/230/12 118/231/12
f 102/196/52 104/195/52 118/227/52
f 120/316/49 104/193/49 121/232/49
f 123/258/52 122/233/52 125/235/52
f 133/317/57 125/236/57 131/237/57
f 108/160/49 109/159/49 124/238/49
f 106/208/53 108/207/53 122/240/53
f 126/247/52 127/241/52 128/243/52
f 94/214/58 110/244/58 127/246/58
f 96/175/50 94/174/50 126/247/50
f 112/218/59 96/177/59 128/249/59
f 131/318/50 130/250/50 133/252/50
f 109/319/54 107/253/54 131/255/54
f 107/210/60 123/202/60 130/257/60
f 132/251/52 123/258/52 133/252/52
f 135/320/54 134/259/54 137/261/54
f 105/321/53 103/262/53 135/264/53
f 103/230/61 119/265/61 134/267/61
f 136/322/50 119/268/50 137/269/50
f 139/323/53 138/270/53 141/271/53
f 140/324/54 114/272/54 141/273/54
f 98/310/62 114/226/62 138/275/62
f 100/325/52 98/276/52 139/278/52
g (null)
f 28/32/10 18/280/10 29/39/10
